<svg width="1280" height="640" viewBox="0 0 1280 640" fill="none" xmlns="http://www.w3.org/2000/svg">
<path d="M547.5 202.5L426.257 408.75H668.745L547.5 202.5Z" fill="#D8DEE9"/>
<path d="M732.5 202.5L611.257 408.75H853.745L732.5 202.5Z" fill="#4C566A"/>
<path fill-rule="evenodd" clip-rule="evenodd" d="M741.168 192.508C748.342 196.65 750.8 205.824 746.658 212.998L629.073 416.66C624.931 423.834 615.757 426.293 608.583 422.15C601.409 418.008 598.95 408.834 603.093 401.66L720.677 197.998C724.819 190.824 733.993 188.366 741.168 192.508Z" fill="#81A1C1"/>
<path fill-rule="evenodd" clip-rule="evenodd" d="M860.49 422.142C867.665 418 870.123 408.826 865.981 401.652L748.397 197.991C744.255 190.817 735.081 188.359 727.907 192.501C720.732 196.643 718.274 205.817 722.416 212.991L840 416.652C844.142 423.826 853.316 426.285 860.49 422.142Z" fill="#81A1C1"/>
<path fill-rule="evenodd" clip-rule="evenodd" d="M529.23 205C529.23 196.716 535.946 190 544.23 190H732.5C740.784 190 747.5 196.716 747.5 205C747.5 213.284 740.784 220 732.5 220H544.23C535.946 220 529.23 213.284 529.23 205Z" fill="#81A1C1"/>
<path fill-rule="evenodd" clip-rule="evenodd" d="M413.001 408.5C413.001 400.216 419.717 393.5 428.001 393.5H613.619C621.903 393.5 628.619 400.216 628.619 408.5C628.619 416.784 621.903 423.5 613.619 423.5H428.001C419.717 423.5 413.001 416.784 413.001 408.5Z" fill="#81A1C1"/>
<path fill-rule="evenodd" clip-rule="evenodd" d="M550.399 192.508C557.573 196.65 560.031 205.824 555.889 212.998L438.305 416.66C434.163 423.834 424.989 426.293 417.815 422.15C410.64 418.008 408.182 408.834 412.324 401.66L529.908 197.998C534.051 190.824 543.224 188.366 550.399 192.508Z" fill="#81A1C1"/>
<path fill-rule="evenodd" clip-rule="evenodd" d="M855 400C863.284 400 870 406.716 870 415V440C870 448.284 863.284 455 855 455C846.716 455 840 448.284 840 440V415C840 406.716 846.716 400 855 400Z" fill="#81A1C1"/>
<path fill-rule="evenodd" clip-rule="evenodd" d="M425 400C433.284 400 440 406.716 440 415V440C440 448.284 433.284 455 425 455C416.716 455 410 448.284 410 440V415C410 406.716 416.716 400 425 400Z" fill="#81A1C1"/>
<path fill-rule="evenodd" clip-rule="evenodd" d="M617.5 400C625.784 400 632.5 406.716 632.5 415V440C632.5 448.284 625.784 455 617.5 455C609.216 455 602.5 448.284 602.5 440V415C602.5 406.716 609.216 400 617.5 400Z" fill="#81A1C1"/>
<path fill-rule="evenodd" clip-rule="evenodd" d="M547.5 262.5C547.5 256.977 551.977 252.5 557.5 252.5H647.5C653.023 252.5 657.5 256.977 657.5 262.5C657.5 268.023 653.023 272.5 647.5 272.5H557.5C551.977 272.5 547.5 268.023 547.5 262.5Z" fill="#4C566A"/>
<path fill-rule="evenodd" clip-rule="evenodd" d="M520 307.5C520 301.977 524.477 297.5 530 297.5H620C625.523 297.5 630 301.977 630 307.5C630 313.023 625.523 317.5 620 317.5H530C524.477 317.5 520 313.023 520 307.5Z" fill="#4C566A"/>
<path fill-rule="evenodd" clip-rule="evenodd" d="M495 352.5C495 346.977 499.477 342.5 505 342.5H595C600.523 342.5 605 346.977 605 352.5C605 358.023 600.523 362.5 595 362.5H505C499.477 362.5 495 358.023 495 352.5Z" fill="#4C566A"/>
</svg>
